<svg width="180" height="48" viewBox="0 0 180 48" fill="none" xmlns="http://www.w3.org/2000/svg">
<g clip-path="url(#clip0_6_26)">
<path d="M0 23.53C0 10.533 10.285 0 22.973 0C35.66 0 45.946 10.534 45.985 23.53C45.9815 25.0336 45.8365 26.5336 45.552 28.01C45.3675 28.9941 45.1169 29.9646 44.802 30.915L38.577 24.781C38.183 24.417 37.592 24.337 37.119 24.66H37.079C36.607 24.942 36.409 25.547 36.607 26.072V26.112C36.922 26.96 35.897 27.646 35.267 27.041L26.125 17.516C25.731 17.193 25.219 16.991 24.707 17.112C23.919 17.314 23.407 18.041 23.485 18.807L23.603 22.52C23.683 23.731 22.697 24.74 21.515 24.66L14.028 22.803C13.7935 22.7464 13.5474 22.7623 13.3222 22.8488C13.097 22.9352 12.9034 23.088 12.767 23.287C12.412 23.852 12.57 24.579 13.122 24.902L20.963 29.866C21.475 30.108 21.16 30.956 20.609 30.754L8.51 26.394C8.03742 26.2374 7.5328 26.2036 7.04353 26.2956C6.55427 26.3876 6.09642 26.6025 5.713 26.92L3.31 29.059C5.674 37.978 13.595 44.516 23.012 44.516C31.682 44.516 39.089 38.946 42.045 31.117L43.936 33.135C40.35 41.368 32.312 47.099 22.973 47.099C12.807 47.099 4.216 40.319 1.183 30.915C0.827 29.785 0.552 28.615 0.355 27.445L2.6 25.385L10.52 18.241C10.8329 17.9656 11.2316 17.8071 11.6482 17.7925C12.0648 17.7779 12.4736 17.9081 12.805 18.161L15.445 20.179C16.115 20.744 17.14 20.703 17.77 20.057L24.351 12.349C24.5238 12.1397 24.7428 11.9734 24.9908 11.863C25.2388 11.7527 25.509 11.7013 25.7801 11.7131C26.0513 11.7248 26.316 11.7992 26.5536 11.9306C26.7911 12.0619 26.9949 12.2466 27.149 12.47L33.729 21.793C34.359 22.519 35.463 22.6 36.172 21.914L36.685 21.51C37.394 20.905 38.418 20.986 39.088 21.632L43.265 25.829C43.344 25.062 43.383 24.295 43.383 23.529C43.383 11.945 34.241 2.582 22.933 2.582C12.096 2.582 3.27 11.219 2.56 22.116L0.04 24.297C0.04 24.175 0.03 24.044 0.02 23.913C0.00866696 23.7853 0.00199586 23.6572 0 23.529L0 23.53ZM79.282 13.48C79.282 12.915 79.203 12.39 79.085 11.987C79.019 11.973 78.949 11.955 78.873 11.936C78.6967 11.8873 78.5173 11.8505 78.336 11.826C78.0492 11.779 77.7595 11.752 77.469 11.745C77.154 11.745 76.879 11.785 76.603 11.825C76.287 11.865 76.051 11.906 75.853 11.987C75.7219 12.4738 75.6559 12.9759 75.657 13.48C75.657 14.045 75.736 14.57 75.854 14.973C76.09 15.054 76.327 15.135 76.603 15.175C76.878 15.215 77.193 15.255 77.469 15.255C77.785 15.255 78.061 15.215 78.336 15.175C78.652 15.135 78.888 15.054 79.085 14.973C79.203 14.529 79.282 14.045 79.282 13.48V13.48ZM79.046 30.31V17.556C78.612 17.436 78.1 17.395 77.509 17.395C76.918 17.395 76.405 17.475 75.972 17.556V30.31C76.405 30.43 76.918 30.471 77.509 30.471C78.0253 30.4658 78.5399 30.4119 79.046 30.31ZM67.382 30.31C67.106 30.39 66.752 30.43 66.397 30.471C66.042 30.511 65.687 30.511 65.293 30.511C64.899 30.511 64.545 30.511 64.19 30.471C63.835 30.431 63.52 30.391 63.205 30.31L57.413 12.108C57.649 12.068 57.885 12.027 58.201 11.987C58.516 11.947 58.831 11.947 59.146 11.947C59.462 11.947 59.776 11.947 60.092 11.987C60.302 12.014 60.477 12.04 60.652 12.067L60.919 12.107L65.293 27.242H65.451L69.904 12.108C70.14 12.068 70.377 12.027 70.692 11.987C71.007 11.947 71.322 11.947 71.638 11.947C71.953 11.947 72.268 11.947 72.583 11.987C72.898 12.027 73.135 12.067 73.371 12.148L67.381 30.31H67.382ZM87.045 26.516C87.045 27.081 87.163 27.444 87.36 27.646C87.596 27.848 87.95 27.929 88.424 27.929C88.739 27.929 89.134 27.929 89.527 27.889C89.921 27.889 90.237 27.848 90.433 27.808C90.473 28.009 90.513 28.211 90.552 28.453C90.552 28.695 90.552 28.938 90.512 29.18C90.472 29.422 90.433 29.664 90.315 29.906C90.236 30.108 90.118 30.31 89.961 30.431C89.763 30.511 89.488 30.551 89.133 30.592C88.778 30.632 88.384 30.632 87.912 30.632C87.4102 30.6338 86.9091 30.5937 86.414 30.512C85.941 30.431 85.508 30.229 85.114 29.987C84.7294 29.6684 84.4197 29.2689 84.207 28.817C83.971 28.292 83.892 27.606 83.892 26.758V19.09H82.001C81.883 18.727 81.843 18.363 81.843 17.92C81.843 17.475 81.883 17.112 82.001 16.75H83.892V13.319C84.089 13.197 84.326 13.117 84.641 13.076C84.9226 12.994 85.2147 12.9535 85.508 12.956C85.784 12.915 86.06 12.915 86.335 12.915C86.611 12.915 86.808 12.955 87.005 12.995V16.749H90.67C90.788 17.112 90.867 17.476 90.867 17.919C90.867 18.363 90.788 18.727 90.67 19.089H87.005V26.516H87.045V26.516Z" fill="#3C3F54"/>
<path fill-rule="evenodd" clip-rule="evenodd" d="M105.919 27.7268C106.038 28.1298 106.077 28.6148 106.038 29.1388C105.958 29.6638 105.801 30.1078 105.526 30.4308C105.159 30.5631 104.772 30.6314 104.382 30.6328C103.989 30.6328 103.555 30.5518 103.201 30.4308C102.814 30.3179 102.461 30.1095 102.176 29.8248C101.859 29.5444 101.627 29.181 101.506 28.7758C101.112 29.3008 100.56 29.7448 99.93 30.1078C99.26 30.4708 98.393 30.6728 97.369 30.6728C96.305 30.6728 95.517 30.5118 94.925 30.2288C94.3889 29.9736 93.9277 29.5844 93.586 29.0988C93.271 28.6548 93.113 28.1708 93.034 27.6458C92.9588 27.1785 92.9194 26.7061 92.916 26.2328C92.916 25.5468 92.956 24.9828 93.073 24.4978C93.153 24.0138 93.349 23.6098 93.586 23.2878C93.822 22.9638 94.177 22.7218 94.65 22.5198C95.123 22.3188 95.674 22.1978 96.423 22.1168C96.738 22.0768 97.132 22.0368 97.566 22.0368H98.906C99.379 22.0368 99.811 22.0768 100.245 22.1568C100.679 22.1968 101.072 22.2778 101.428 22.3988V21.2288C101.428 20.8248 101.388 20.4618 101.309 20.2198C101.23 19.9368 101.112 19.7358 100.915 19.6148C100.718 19.4528 100.521 19.3718 100.245 19.2918C99.969 19.2518 99.654 19.2108 99.26 19.1708C98.3408 19.1304 97.4202 19.1304 96.501 19.1708C95.635 19.2108 94.886 19.2508 94.295 19.3318C94.059 19.0488 93.94 18.6458 93.862 18.1618C93.782 17.6768 93.744 17.2328 93.782 16.8298C94.177 16.7498 94.571 16.7088 95.044 16.6678C95.517 16.6278 95.989 16.5878 96.501 16.5478C96.738 16.5278 96.984 16.5168 97.231 16.5068C97.477 16.4968 97.723 16.4868 97.961 16.4668C98.201 16.4668 98.433 16.4558 98.659 16.4458C98.875 16.4358 99.088 16.4258 99.299 16.4258C100.087 16.4258 100.757 16.4658 101.428 16.5878C102.097 16.7078 102.609 16.9098 103.082 17.2328C103.555 17.5558 103.909 18.0408 104.146 18.6458C104.422 19.2508 104.54 20.0588 104.54 21.0668V27.6058C104.658 27.6858 104.777 27.7668 104.934 27.7668C105.092 27.8068 105.25 27.8068 105.407 27.8068C105.491 27.8068 105.565 27.7958 105.633 27.7848C105.692 27.7748 105.747 27.7668 105.801 27.7668C105.841 27.7268 105.919 27.7268 105.919 27.7268V27.7268ZM98.118 28.1708C98.906 28.1308 99.575 28.0088 100.087 27.7668C100.599 27.5248 101.033 27.2428 101.388 26.8788V23.9728C100.679 23.9728 99.93 23.9728 99.142 24.0128C98.354 24.0538 97.723 24.1348 97.172 24.2148C96.974 24.2548 96.778 24.2958 96.659 24.3368C96.5901 24.3599 96.5266 24.3968 96.4724 24.4453C96.4183 24.4938 96.3746 24.5528 96.344 24.6188C96.2422 24.7925 96.1752 24.9844 96.147 25.1838C96.107 25.4258 96.107 25.7898 96.107 26.1938C96.107 26.9198 96.266 27.4438 96.541 27.7668C96.778 28.0498 97.33 28.2108 98.118 28.1708V28.1708Z" fill="#3C3F54"/>
<path d="M114.115 14.4892C113.407 14.4892 112.894 14.6102 112.658 14.8922C112.382 15.1752 112.263 15.7402 112.263 16.5472V17.9602H115.456C115.574 18.3232 115.652 18.6862 115.652 19.1302C115.652 19.5742 115.574 19.9372 115.456 20.3002H112.263V30.3502C111.76 30.4768 111.245 30.5446 110.727 30.5522C110.175 30.5522 109.663 30.4722 109.19 30.3502V20.3002H107.417C107.287 19.9237 107.22 19.5284 107.219 19.1302C107.219 18.6862 107.299 18.3232 107.417 17.9602H109.19V16.3862C109.19 15.7402 109.268 15.1352 109.426 14.5702C109.584 14.0052 109.86 13.5202 110.214 13.1172C110.574 12.6982 111.035 12.3784 111.554 12.1882C112.105 11.9462 112.736 11.8662 113.485 11.8662C113.722 11.8662 113.958 11.8662 114.273 11.9062C114.556 11.9062 114.808 11.9382 115.085 11.9752L115.179 11.9872C115.495 12.0272 115.771 12.0672 116.047 12.1482C116.219 12.1742 116.377 12.2152 116.52 12.2522C116.604 12.2742 116.682 12.2942 116.756 12.3102C116.835 12.7132 116.835 13.1172 116.795 13.5602C116.723 13.9682 116.59 14.363 116.401 14.7312L115.337 14.6112C114.864 14.4892 114.51 14.4892 114.115 14.4892V14.4892Z" fill="#3C3F54"/>
<path fill-rule="evenodd" clip-rule="evenodd" d="M123.652 16.4258C124.873 16.4258 125.897 16.5878 126.725 16.8698C127.553 17.1928 128.222 17.6368 128.735 18.2018C129.247 18.8068 129.602 19.5338 129.799 20.3818C129.995 21.2688 130.114 22.2378 130.114 23.3278C130.114 24.5378 129.995 25.5878 129.799 26.5158C129.616 27.3386 129.253 28.1105 128.735 28.7758C128.222 29.3808 127.553 29.8258 126.725 30.1478C125.897 30.4708 124.873 30.5918 123.652 30.5918C122.43 30.5918 121.366 30.4308 120.538 30.1478C119.711 29.8248 119.042 29.3808 118.529 28.7758C118.017 28.1708 117.662 27.4038 117.465 26.5158C117.268 25.6278 117.15 24.5378 117.15 23.3278C117.15 22.2378 117.268 21.2278 117.465 20.3808C117.662 19.4938 118.017 18.7668 118.529 18.2018C119.042 17.5968 119.711 17.1518 120.538 16.8698C121.406 16.5468 122.43 16.4258 123.652 16.4258V16.4258ZM123.652 19.0488C122.982 19.0488 122.43 19.1298 121.996 19.2918C121.586 19.4394 121.229 19.7065 120.972 20.0588C120.701 20.4717 120.526 20.9407 120.46 21.4308C120.381 21.9958 120.342 22.6408 120.342 23.3678C120.342 24.1748 120.381 24.9018 120.46 25.5068C120.538 26.1118 120.696 26.5968 120.972 26.9598C121.208 27.3228 121.563 27.6058 121.996 27.8078C122.527 27.9996 123.088 28.0951 123.652 28.0898C124.321 28.0898 124.913 28.0098 125.306 27.8078C125.74 27.6058 126.055 27.3228 126.292 26.9598C126.528 26.5968 126.685 26.1118 126.765 25.5068C126.849 24.8103 126.888 24.1092 126.882 23.4078C126.882 22.6408 126.843 21.9958 126.765 21.4708C126.685 20.9468 126.528 20.4618 126.292 20.1388C126.055 19.7758 125.74 19.5338 125.306 19.3718C124.913 19.1298 124.36 19.0488 123.652 19.0488V19.0488Z" fill="#3C3F54"/>
<path d="M141.974 16.5068C142.014 16.6678 142.054 16.8698 142.093 17.1528C142.132 17.4475 142.132 17.7461 142.093 18.0408C142.054 18.3628 142.014 18.6458 141.974 18.9278C141.915 19.1501 141.836 19.3664 141.738 19.5738C141.462 19.5338 141.108 19.5338 140.713 19.5338C140.32 19.5338 139.886 19.5338 139.413 19.5738C138.94 19.6138 138.468 19.6548 137.916 19.6948C137.745 19.7218 137.574 19.7448 137.403 19.7668C137.062 19.8118 136.721 19.8568 136.379 19.9368V30.3498C136.183 30.3898 135.946 30.4298 135.67 30.4708C135.395 30.5108 135.118 30.5108 134.842 30.5108C134.566 30.5108 134.291 30.5108 134.015 30.4708C133.739 30.4308 133.503 30.3908 133.305 30.3508V16.8698C133.424 16.7888 133.581 16.7078 133.818 16.6268C134.054 16.5468 134.291 16.5058 134.527 16.5058C134.764 16.4658 135 16.4658 135.237 16.4658C135.473 16.4658 135.67 16.5058 135.788 16.5458L136.34 18.2008C136.801 17.8042 137.319 17.4777 137.876 17.2318C138.381 16.9905 138.909 16.8012 139.452 16.6668C139.931 16.5502 140.419 16.4693 140.911 16.4248C141.266 16.4248 141.62 16.4248 141.974 16.5048V16.5068Z" fill="#3C3F54"/>
<path fill-rule="evenodd" clip-rule="evenodd" d="M149.619 16.4258C150.919 16.4258 151.944 16.5878 152.772 16.9108C153.532 17.1958 154.2 17.6842 154.702 18.3228C155.175 18.9278 155.451 19.6548 155.569 20.5428C155.687 21.4308 155.687 22.3988 155.529 23.4888C155.49 23.7718 155.412 24.0138 155.293 24.1748C155.175 24.3368 154.9 24.4578 154.505 24.5378C154.229 24.5778 153.756 24.6188 153.165 24.6598C152.575 24.6998 151.904 24.6998 151.156 24.6998C150.407 24.6998 149.698 24.6998 148.95 24.6598C148.264 24.6203 147.581 24.5529 146.901 24.4578C146.901 25.1438 146.979 25.7488 147.097 26.1928C147.216 26.6768 147.373 27.0408 147.649 27.2828C147.885 27.5648 148.24 27.7668 148.634 27.8478C149.028 27.9688 149.58 28.0088 150.21 28.0088C150.604 28.0088 151.077 28.0088 151.55 27.9688C152.023 27.9288 152.495 27.8888 152.929 27.8478C153.363 27.8078 153.756 27.7678 154.072 27.7268C154.387 27.6868 154.624 27.6458 154.741 27.6058C154.9 27.8478 155.056 28.2108 155.175 28.6958C155.293 29.1798 155.293 29.6238 155.214 30.0678C155.017 30.1478 154.702 30.2288 154.309 30.3098C154.07 30.3588 153.816 30.3928 153.54 30.4298C153.36 30.4538 153.171 30.4798 152.968 30.5118C152.495 30.5518 151.983 30.5918 151.471 30.6318C150.959 30.6728 150.486 30.6728 150.053 30.6728C148.87 30.6728 147.846 30.5518 147.058 30.3098C146.284 30.0883 145.588 29.655 145.048 29.0588C144.536 28.4938 144.181 27.7268 143.945 26.7988C143.708 25.8698 143.63 24.7398 143.63 23.3678C143.63 22.2378 143.708 21.2688 143.906 20.3808C144.063 19.5338 144.379 18.8068 144.852 18.2018C145.284 17.6368 145.915 17.1928 146.664 16.8698C147.413 16.5468 148.397 16.4258 149.619 16.4258V16.4258ZM152.495 22.5208C152.535 21.7128 152.535 21.1078 152.417 20.6228C152.299 20.1388 152.141 19.8158 151.904 19.5738C151.655 19.3285 151.341 19.1604 150.999 19.0898C150.597 19.0058 150.187 18.9652 149.777 18.9688C149.185 18.9688 148.673 19.0088 148.319 19.1298C147.925 19.2108 147.649 19.4128 147.413 19.6548C147.191 19.9823 147.043 20.3543 146.979 20.7448C146.901 21.2288 146.86 21.7938 146.821 22.5608L152.495 22.5208Z" fill="#3C3F54"/>
<path d="M163.726 16.426C164.278 16.426 164.869 16.466 165.42 16.506C166.011 16.547 166.523 16.588 166.996 16.668C167.187 16.701 167.371 16.727 167.546 16.752C167.806 16.788 168.046 16.822 168.257 16.87C168.612 16.95 168.848 17.032 168.967 17.072C169.006 17.233 169.006 17.435 169.006 17.677C169.006 17.889 168.976 18.069 168.943 18.273L168.942 18.276L168.928 18.363C168.888 18.606 168.848 18.807 168.77 19.009C168.691 19.211 168.612 19.372 168.533 19.534C168.494 19.534 168.336 19.494 168.021 19.413C167.706 19.333 167.311 19.292 166.879 19.251C166.406 19.211 165.933 19.171 165.342 19.09C164.804 19.0442 164.265 19.0175 163.726 19.01C162.82 19.01 162.189 19.09 161.835 19.251C161.48 19.413 161.322 19.736 161.322 20.22C161.322 20.543 161.401 20.785 161.559 20.987C161.716 21.189 161.952 21.35 162.268 21.511C162.337 21.538 162.408 21.566 162.48 21.596C162.743 21.701 163.041 21.82 163.411 21.915C163.844 22.036 164.396 22.198 164.987 22.399L165.073 22.427C165.785 22.657 166.389 22.853 166.957 23.086C167.472 23.2734 167.952 23.5462 168.376 23.893C168.77 24.215 169.045 24.579 169.243 25.023C169.44 25.467 169.518 26.032 169.518 26.718C169.518 28.09 169.045 29.099 168.14 29.704C167.233 30.35 165.775 30.673 163.765 30.673C163.174 30.673 162.583 30.633 161.993 30.593C161.401 30.552 160.849 30.512 160.376 30.431C160.186 30.4015 159.995 30.3741 159.805 30.349C159.548 30.3175 159.291 30.2775 159.037 30.229C158.741 30.1749 158.451 30.0939 158.17 29.987C158.13 29.5573 158.13 29.1248 158.17 28.695C158.249 28.211 158.367 27.808 158.524 27.565C158.722 27.605 158.997 27.646 159.391 27.686C159.719 27.72 160.073 27.781 160.456 27.848L160.691 27.888C161.164 27.969 161.716 28.009 162.268 28.05L162.379 28.058C162.888 28.095 163.366 28.13 163.844 28.13C164.83 28.13 165.499 28.01 165.893 27.808C166.248 27.606 166.445 27.242 166.445 26.798C166.445 26.516 166.366 26.274 166.208 26.112C166.014 25.9139 165.787 25.7502 165.538 25.628C165.18 25.4678 164.811 25.3328 164.435 25.224C163.907 25.0722 163.381 24.9108 162.859 24.74C162.18 24.5234 161.509 24.2812 160.849 24.014C160.323 23.8057 159.832 23.5199 159.391 23.166C159.002 22.8514 158.692 22.4509 158.485 21.996C158.288 21.552 158.17 20.986 158.17 20.381C158.17 19.009 158.603 18.001 159.51 17.395C160.495 16.709 161.874 16.426 163.726 16.426V16.426ZM176.138 26.516C176.138 27.081 176.256 27.444 176.453 27.646C176.69 27.848 177.044 27.929 177.517 27.929C177.833 27.929 178.227 27.929 178.621 27.889C179.015 27.889 179.33 27.848 179.527 27.808C179.566 28.009 179.606 28.211 179.646 28.453C179.646 28.695 179.646 28.938 179.606 29.18C179.566 29.422 179.527 29.664 179.409 29.906C179.33 30.108 179.212 30.31 179.054 30.431C178.858 30.511 178.581 30.551 178.227 30.592C177.873 30.632 177.478 30.632 177.005 30.632C176.503 30.6338 176.002 30.5937 175.507 30.512C175.035 30.431 174.602 30.229 174.207 29.987C173.823 29.668 173.514 29.2686 173.301 28.817C173.065 28.292 172.986 27.606 172.986 26.758V19.09H171.094C170.977 18.727 170.937 18.363 170.937 17.92C170.937 17.475 170.977 17.112 171.094 16.75H172.986V13.319C173.183 13.197 173.419 13.117 173.735 13.076C174.011 12.996 174.287 12.956 174.602 12.956C174.877 12.915 175.153 12.915 175.429 12.915C175.705 12.915 175.902 12.955 176.099 12.995V16.749H179.764C179.882 17.112 179.961 17.476 179.961 17.919C179.961 18.363 179.882 18.727 179.764 19.089H176.138V26.516V26.516Z" fill="#3C3F54"/>
</g>
<defs>
<clipPath id="clip0_6_26">
<rect width="180" height="48" fill="white"/>
</clipPath>
</defs>
</svg>
