<svg width="15" height="17" viewBox="0 0 15 17" fill="none" xmlns="http://www.w3.org/2000/svg">
<path d="M11.6601 9.18438H4.1601C4.00385 9.18438 3.9101 9.30938 3.9101 9.43438V10.4344C3.9101 10.5906 4.00385 10.6844 4.1601 10.6844H11.6601C11.7851 10.6844 11.9101 10.5906 11.9101 10.4344V9.43438C11.9101 9.30938 11.7851 9.18438 11.6601 9.18438ZM13.4101 0.371876L12.0663 1.34063L10.8476 0.496876C10.3163 0.121876 9.62885 0.121876 9.0976 0.496876L7.9101 1.34063L6.69135 0.496876C6.44135 0.309376 6.12885 0.215626 5.81635 0.215626C5.4726 0.215626 5.19135 0.309376 4.94135 0.496876L3.7226 1.34063L2.37885 0.371876C1.75385 -0.0656244 0.910095 0.371876 0.910095 1.12188V15.2781C0.910095 15.9969 1.75385 16.4656 2.37885 16.0281L3.7226 15.0281L4.94135 15.9031C5.4726 16.2781 6.1601 16.2781 6.69135 15.9031L7.9101 15.0281L9.0976 15.9031C9.62885 16.2781 10.3163 16.2781 10.8476 15.9031L12.0663 15.0281L13.4101 16.0281C14.0351 16.4656 14.9101 16.0281 14.9101 15.2781V1.12188C14.9101 0.371876 14.0351 -0.0656244 13.4101 0.371876ZM13.4101 14.1531L12.0663 13.1844L9.9726 14.6844L7.87885 13.1844L5.81635 14.6844L3.7226 13.1844L2.4101 14.1531V2.24688L3.7226 3.21563L5.81635 1.71563L7.9101 3.21563L9.9726 1.71563L12.0663 3.21563L13.4101 2.24688V14.1531ZM11.6601 5.68438H4.1601C4.00385 5.68438 3.9101 5.80938 3.9101 5.93438V6.93438C3.9101 7.09063 4.00385 7.18438 4.1601 7.18438H11.6601C11.7851 7.18438 11.9101 7.09063 11.9101 6.93438V5.93438C11.9101 5.80938 11.7851 5.68438 11.6601 5.68438Z" fill="white"/>
</svg>
