<svg width="200" height="58" viewBox="0 0 200 58" fill="none" xmlns="http://www.w3.org/2000/svg">
<g filter="url(#filter0_d_6_63)">
<path d="M4 28.5C4 14.968 14.97 4 28.504 4C42.038 4 53.01 14.968 53.051 28.5C53.051 30.097 52.883 31.652 52.588 33.165C52.3916 34.1904 52.125 35.2011 51.79 36.19L45.149 29.803C44.9413 29.6111 44.6752 29.4943 44.3933 29.4715C44.1113 29.4486 43.8299 29.521 43.594 29.677H43.552C43.308 29.8231 43.1235 30.0508 43.0311 30.3198C42.9387 30.5888 42.9443 30.8818 43.047 31.147V31.19C43.384 32.072 42.291 32.786 41.618 32.156L31.867 22.238C31.447 21.902 30.9 21.692 30.354 21.818C29.514 22.028 28.967 22.785 29.051 23.583L29.177 27.449C29.1964 27.7466 29.1521 28.0449 29.047 28.3241C28.9419 28.6032 28.7784 28.8566 28.5675 29.0675C28.3566 29.2784 28.1032 29.4419 27.8241 29.547C27.5449 29.6521 27.2466 29.6964 26.949 29.677L18.963 27.744C18.7141 27.6845 18.4531 27.7007 18.2135 27.7905C17.9739 27.8803 17.7665 28.0396 17.618 28.248C17.24 28.836 17.408 29.593 17.997 29.928L26.361 35.098C26.907 35.35 26.571 36.232 25.983 36.022L13.079 31.484C12.5754 31.3203 12.0389 31.2846 11.518 31.3799C10.9971 31.4752 10.5081 31.6986 10.095 32.03L7.53 34.257C10.052 43.545 18.5 50.353 28.545 50.353C37.792 50.353 45.695 44.553 48.847 36.4L50.864 38.502C47.039 47.075 38.464 53.042 28.504 53.042C17.659 53.042 8.496 45.982 5.26 36.19C4.88185 35.0074 4.5868 33.7998 4.377 32.576L6.773 30.433L15.221 22.995C15.894 22.407 16.945 22.365 17.659 22.911L20.475 25.012C20.8318 25.2989 21.2817 25.4446 21.739 25.4214C22.1963 25.3982 22.6291 25.2076 22.955 24.886L29.975 16.859C30.773 15.935 32.245 15.977 32.959 16.985L39.978 26.693C40.65 27.449 41.828 27.533 42.584 26.819L43.13 26.399C43.887 25.769 44.98 25.852 45.694 26.525L50.15 30.895C50.234 30.097 50.276 29.299 50.276 28.5C50.276 16.44 40.524 6.69 28.461 6.69C16.903 6.69 7.488 15.683 6.731 27.03L4.041 29.298C4.041 29.172 4.031 29.036 4.02 28.899C4.00837 28.7663 4.0017 28.6332 4 28.5V28.5ZM88.567 18.036C88.5707 17.5104 88.5 16.9868 88.357 16.481C88.287 16.467 88.213 16.448 88.132 16.428C87.9436 16.3777 87.7522 16.3392 87.559 16.313C87.2529 16.2642 86.9439 16.2361 86.634 16.229C86.324 16.2342 86.0148 16.2623 85.709 16.313C85.373 16.355 85.121 16.397 84.911 16.481C84.785 16.943 84.701 17.448 84.701 18.036C84.701 18.624 84.785 19.171 84.911 19.591C85.163 19.675 85.415 19.759 85.709 19.801C86.003 19.843 86.339 19.885 86.634 19.885C86.97 19.885 87.264 19.843 87.559 19.801C87.895 19.759 88.147 19.675 88.357 19.591C88.483 19.129 88.567 18.624 88.567 18.036V18.036ZM88.315 35.56V22.28C87.853 22.154 87.307 22.112 86.676 22.112C86.1253 22.1175 85.5763 22.1737 85.036 22.28V35.56C85.499 35.686 86.046 35.728 86.676 35.728C87.2267 35.7224 87.7756 35.6662 88.316 35.56H88.315ZM75.874 35.56C75.58 35.644 75.201 35.686 74.824 35.728C74.444 35.77 74.067 35.77 73.646 35.77C73.226 35.77 72.848 35.77 72.469 35.728C72.1156 35.6959 71.7648 35.6397 71.419 35.56L65.24 16.607C65.492 16.565 65.744 16.523 66.08 16.481C66.417 16.439 66.753 16.439 67.09 16.439C67.426 16.439 67.762 16.439 68.098 16.481C68.322 16.509 68.509 16.537 68.696 16.565L68.981 16.607L73.646 32.367H73.814L78.564 16.607C78.816 16.565 79.068 16.523 79.404 16.481C79.741 16.439 80.077 16.439 80.414 16.439C80.75 16.439 81.086 16.439 81.422 16.481C81.758 16.523 82.01 16.565 82.262 16.649L75.875 35.56H75.874ZM96.848 31.61C96.848 32.198 96.974 32.576 97.184 32.786C97.436 32.996 97.814 33.081 98.319 33.081C98.655 33.081 99.075 33.081 99.496 33.039C99.8199 33.0417 100.143 33.0136 100.462 32.955C100.504 33.165 100.546 33.375 100.588 33.627C100.588 33.879 100.588 34.131 100.546 34.383C100.504 34.635 100.462 34.888 100.336 35.14C100.252 35.35 100.126 35.56 99.958 35.686C99.748 35.77 99.454 35.812 99.075 35.854C98.697 35.896 98.277 35.896 97.772 35.896C97.2371 35.8975 96.703 35.8554 96.175 35.77C95.671 35.686 95.208 35.476 94.788 35.224C94.3796 34.8941 94.0493 34.4778 93.821 34.005C93.569 33.459 93.485 32.745 93.485 31.862V23.877H91.468C91.341 23.499 91.299 23.121 91.299 22.659C91.299 22.196 91.341 21.819 91.468 21.44H93.485V17.868C93.695 17.742 93.948 17.658 94.284 17.616C94.578 17.532 94.872 17.49 95.208 17.49C95.503 17.448 95.797 17.448 96.091 17.448C96.385 17.448 96.596 17.49 96.806 17.532V21.44H100.715C100.853 21.8317 100.924 22.2438 100.925 22.659C100.924 23.0739 100.853 23.4856 100.715 23.877H96.805V31.61H96.848V31.61Z" fill="white"/>
<path fill-rule="evenodd" clip-rule="evenodd" d="M116.981 32.8695C117.107 33.2895 117.149 33.7945 117.107 34.3405C117.023 34.8875 116.855 35.3495 116.56 35.6855C116.169 35.8234 115.757 35.8944 115.341 35.8955C114.913 35.8906 114.488 35.8198 114.081 35.6855C113.67 35.5693 113.295 35.3528 112.988 35.0555C112.652 34.7657 112.404 34.3869 112.273 33.9625C111.853 34.5085 111.264 34.9715 110.592 35.3495C109.877 35.7275 108.953 35.9375 107.86 35.9375C106.725 35.9375 105.884 35.7695 105.254 35.4755C104.685 35.2125 104.193 34.8071 103.825 34.2985C103.489 33.8365 103.32 33.3325 103.236 32.7855C103.156 32.2995 103.114 31.808 103.11 31.3155C103.11 30.6005 103.152 30.0125 103.278 29.5085C103.363 29.0035 103.573 28.5835 103.825 28.2475C104.077 27.9115 104.455 27.6595 104.96 27.4485C105.464 27.2385 106.053 27.1125 106.851 27.0285C107.256 26.9751 107.663 26.9471 108.07 26.9445H109.499C110.003 26.9445 110.466 26.9865 110.928 27.0705C111.391 27.1125 111.811 27.1965 112.189 27.3225V26.1045C112.189 25.6845 112.147 25.3055 112.063 25.0535C111.979 24.7595 111.853 24.5495 111.643 24.4235C111.433 24.2555 111.222 24.1715 110.928 24.0865C110.634 24.0455 110.298 24.0025 109.877 23.9605C108.897 23.9185 107.916 23.9185 106.935 23.9605C106.01 24.0025 105.212 24.0455 104.581 24.1295C104.329 23.8345 104.203 23.4145 104.119 22.9095C104.035 22.4065 103.993 21.9435 104.035 21.5235C104.455 21.4395 104.876 21.3975 105.38 21.3555C105.884 21.3135 106.389 21.2715 106.935 21.2295C107.187 21.2085 107.45 21.1975 107.713 21.1875C107.975 21.1775 108.238 21.1665 108.49 21.1455C108.748 21.1455 108.995 21.1345 109.236 21.1235C109.467 21.1135 109.693 21.1035 109.919 21.1035C110.76 21.1035 111.475 21.1455 112.189 21.2715C112.904 21.3975 113.45 21.6075 113.954 21.9435C114.459 22.2795 114.837 22.7835 115.089 23.4145C115.384 24.0445 115.51 24.8845 115.51 25.9355V32.7435C115.636 32.8275 115.762 32.9125 115.93 32.9125C116.098 32.9545 116.266 32.9545 116.434 32.9545C116.524 32.9545 116.602 32.9425 116.675 32.9305C116.738 32.9205 116.796 32.9125 116.855 32.9125C116.897 32.8705 116.981 32.8705 116.981 32.8705V32.8695ZM108.658 33.3325C109.499 33.2905 110.214 33.1645 110.76 32.9125C111.306 32.6595 111.769 32.3655 112.147 31.9875V28.9615C111.39 28.9615 110.592 28.9615 109.751 29.0035C108.911 29.0455 108.238 29.1295 107.65 29.2135C107.466 29.2465 107.283 29.2888 107.103 29.3405C107.03 29.364 106.963 29.4022 106.905 29.4527C106.847 29.5033 106.8 29.5652 106.767 29.6345C106.659 29.8146 106.587 30.0145 106.557 30.2225C106.515 30.4745 106.515 30.8525 106.515 31.2725C106.515 32.0295 106.683 32.5755 106.977 32.9125C107.229 33.2065 107.818 33.3745 108.658 33.3325V33.3325Z" fill="white"/>
<path d="M125.723 19.0875C124.967 19.0875 124.42 19.2135 124.168 19.5075C123.874 19.8015 123.748 20.3895 123.748 21.2305V22.7005H127.152C127.278 23.0795 127.363 23.4575 127.363 23.9205C127.363 24.3825 127.278 24.7605 127.152 25.1385H123.748V35.6025C123.212 35.7342 122.662 35.8046 122.109 35.8125C121.556 35.8101 121.005 35.7395 120.469 35.6025V25.1385H118.578C118.44 24.7468 118.369 24.3347 118.368 23.9195C118.368 23.4575 118.452 23.0795 118.578 22.7015H120.469V21.0615C120.469 20.3895 120.553 19.7595 120.722 19.1715C120.882 18.6094 121.17 18.0917 121.562 17.6585C121.94 17.2385 122.403 16.9015 122.991 16.6915C123.58 16.4395 124.252 16.3555 125.051 16.3555C125.303 16.3555 125.555 16.3555 125.891 16.3975C126.194 16.3975 126.462 16.4315 126.757 16.4685L126.858 16.4815C127.194 16.5235 127.489 16.5655 127.783 16.6495C127.968 16.6765 128.136 16.7195 128.287 16.7575C128.377 16.7805 128.461 16.8025 128.539 16.8175C128.623 17.2375 128.623 17.6575 128.581 18.1205C128.497 18.5405 128.371 18.9605 128.161 19.3395L127.026 19.2135C126.522 19.0875 126.144 19.0875 125.723 19.0875V19.0875Z" fill="white"/>
<path fill-rule="evenodd" clip-rule="evenodd" d="M135.895 21.1035C137.198 21.1035 138.291 21.2715 139.173 21.5655C140.056 21.9015 140.771 22.3645 141.317 22.9525C141.863 23.5825 142.242 24.3395 142.452 25.2225C142.662 26.1465 142.788 27.1545 142.788 28.2895C142.788 29.5495 142.662 30.6425 142.452 31.6095C142.255 32.4693 141.868 33.2736 141.317 33.9625C140.771 34.5925 140.056 35.0555 139.173 35.3915C138.291 35.7275 137.198 35.8535 135.895 35.8535C134.592 35.8535 133.457 35.6855 132.574 35.3915C131.692 35.0555 130.977 34.5925 130.431 33.9625C129.884 33.3325 129.506 32.5335 129.296 31.6095C129.086 30.6845 128.96 29.5495 128.96 28.2895C128.96 27.1545 129.086 26.1045 129.296 25.2215C129.506 24.2975 129.884 23.5415 130.431 22.9515C130.977 22.3215 131.692 21.8595 132.574 21.5655C133.499 21.2295 134.592 21.1035 135.895 21.1035ZM135.895 23.8345C135.18 23.8345 134.592 23.9185 134.13 24.0865C133.694 24.2383 133.314 24.5164 133.037 24.8855C132.785 25.2635 132.574 25.7255 132.49 26.3145C132.401 26.9831 132.359 27.6571 132.364 28.3315C132.364 29.1715 132.406 29.9285 132.49 30.5585C132.574 31.1885 132.743 31.6935 133.037 32.0715C133.289 32.4495 133.667 32.7435 134.13 32.9545C134.697 33.155 135.294 33.2545 135.895 33.2485C136.609 33.2485 137.24 33.1645 137.66 32.9545C138.123 32.7445 138.459 32.4495 138.711 32.0715C138.963 31.6935 139.131 31.1885 139.215 30.5585C139.299 29.9285 139.342 29.2135 139.342 28.3735C139.342 27.5755 139.299 26.9035 139.215 26.3565C139.131 25.8105 138.963 25.3065 138.711 24.9695C138.459 24.5915 138.123 24.3395 137.66 24.1715C137.24 23.9185 136.651 23.8345 135.895 23.8345V23.8345Z" fill="white"/>
<path d="M155.44 21.1875C155.482 21.3555 155.524 21.5655 155.566 21.8595C155.608 22.1535 155.608 22.4475 155.566 22.7845C155.524 23.1205 155.482 23.4145 155.44 23.7085C155.377 23.9403 155.293 24.1656 155.187 24.3815C154.893 24.3395 154.515 24.3395 154.095 24.3395C153.674 24.3395 153.212 24.3395 152.708 24.3815C152.203 24.4235 151.699 24.4655 151.11 24.5075C150.929 24.5345 150.747 24.5592 150.564 24.5815C150.2 24.6285 149.835 24.6755 149.471 24.7595V35.6015C149.261 35.6435 149.009 35.6855 148.715 35.7275C148.42 35.7695 148.126 35.7695 147.832 35.7695C147.538 35.7695 147.243 35.7695 146.949 35.7275C146.696 35.6924 146.444 35.6504 146.193 35.6015V21.5655C146.319 21.4815 146.487 21.3975 146.739 21.3135C146.983 21.2308 147.239 21.1883 147.496 21.1875C147.748 21.1455 148 21.1455 148.252 21.1455C148.504 21.1455 148.715 21.1875 148.841 21.2295L149.429 22.9525C149.924 22.5382 150.476 22.1983 151.068 21.9435C151.608 21.6918 152.171 21.4948 152.75 21.3555C153.262 21.2339 153.782 21.1497 154.305 21.1035C154.683 21.1035 155.061 21.1035 155.44 21.1875V21.1875Z" fill="white"/>
<path fill-rule="evenodd" clip-rule="evenodd" d="M163.594 21.1035C164.981 21.1035 166.074 21.2715 166.956 21.6075C167.839 21.9435 168.511 22.4475 169.016 23.0775C169.52 23.7085 169.814 24.4655 169.94 25.3895C170.067 26.3145 170.067 27.3225 169.898 28.4575C169.856 28.7515 169.772 29.0035 169.646 29.1715C169.52 29.3395 169.226 29.4665 168.806 29.5505C168.331 29.6076 167.855 29.6496 167.377 29.6765C166.746 29.7185 166.032 29.7185 165.233 29.7185C164.434 29.7185 163.678 29.7185 162.879 29.6765C162.148 29.6354 161.419 29.5654 160.694 29.4665C160.694 30.1805 160.778 30.8105 160.904 31.2735C161.03 31.7775 161.198 32.1555 161.492 32.4075C161.768 32.7144 162.137 32.9215 162.543 32.9965C162.963 33.1225 163.552 33.1645 164.224 33.1645C164.645 33.1645 165.149 33.1645 165.653 33.1225C166.158 33.0805 166.662 33.0385 167.124 32.9965C167.587 32.9545 168.007 32.9125 168.343 32.8695C168.68 32.8285 168.932 32.7855 169.058 32.7435C169.226 32.9965 169.394 33.3735 169.52 33.8785C169.638 34.3461 169.653 34.8338 169.562 35.3075C169.352 35.3915 169.016 35.4755 168.595 35.5595C168.341 35.6095 168.071 35.6455 167.776 35.6845C167.584 35.7095 167.382 35.7365 167.166 35.7695C166.662 35.8115 166.116 35.8535 165.57 35.8955H165.569C165.023 35.9375 164.518 35.9375 164.056 35.9375C162.795 35.9375 161.702 35.8115 160.862 35.5595C160.041 35.3313 159.299 34.8803 158.718 34.2565C158.172 33.6685 157.793 32.8705 157.541 31.9035C157.289 30.9365 157.205 29.7605 157.205 28.3315C157.205 27.1545 157.289 26.1465 157.499 25.2215C157.667 24.3395 158.004 23.5825 158.508 22.9515C158.97 22.3635 159.643 21.9015 160.441 21.5655C161.24 21.2295 162.291 21.1035 163.594 21.1035V21.1035ZM166.662 27.4485C166.704 26.6085 166.704 25.9785 166.578 25.4735C166.452 24.9695 166.284 24.6335 166.032 24.3815C165.764 24.1248 165.429 23.9496 165.065 23.8765C164.636 23.7889 164.2 23.7466 163.762 23.7505C163.131 23.7505 162.585 23.7925 162.207 23.9185C161.786 24.0025 161.492 24.2135 161.24 24.4655C161.004 24.8048 160.847 25.1921 160.778 25.5995C160.694 26.1045 160.651 26.6925 160.609 27.4905L166.662 27.4485V27.4485Z" fill="white"/>
<path d="M178.641 21.1042C179.229 21.1042 179.86 21.1462 180.448 21.1882C181.079 21.2302 181.625 21.2722 182.13 21.3562C182.333 21.3902 182.529 21.4162 182.716 21.4432C182.993 21.4812 183.249 21.5162 183.475 21.5662C183.853 21.6502 184.105 21.7342 184.231 21.7762C184.273 21.9442 184.273 22.1542 184.273 22.4062C184.273 22.6262 184.241 22.8152 184.205 23.0262L184.204 23.0302L184.189 23.1202C184.158 23.3501 184.102 23.5758 184.021 23.7932C183.937 24.0032 183.853 24.1722 183.769 24.3402C183.727 24.3402 183.559 24.2982 183.223 24.2142C182.886 24.1302 182.466 24.0872 182.004 24.0462C181.499 24.0032 180.995 23.9612 180.364 23.8772C179.791 23.8293 179.216 23.8012 178.641 23.7932C177.674 23.7932 177.002 23.8772 176.623 24.0462C176.245 24.2142 176.077 24.5502 176.077 25.0542C176.077 25.3902 176.161 25.6422 176.329 25.8532C176.497 26.0632 176.75 26.2312 177.086 26.3992L177.313 26.4862C177.593 26.5962 177.911 26.7212 178.305 26.8192C178.767 26.9452 179.356 27.1132 179.986 27.3232L180.078 27.3532C180.837 27.5922 181.482 27.7952 182.088 28.0382C182.635 28.2326 183.147 28.5165 183.601 28.8782C184.021 29.2142 184.315 29.5932 184.525 30.0552C184.736 30.5172 184.82 31.1052 184.82 31.8202C184.82 33.2492 184.315 34.3002 183.349 34.9302C182.382 35.6022 180.827 35.9382 178.683 35.9382C178.053 35.9382 177.422 35.8962 176.792 35.8542C176.161 35.8122 175.573 35.7702 175.068 35.6862C174.853 35.6532 174.651 35.6262 174.459 35.6012C174.164 35.5622 173.894 35.5272 173.639 35.4762C173.324 35.4197 173.015 35.3354 172.715 35.2242C172.672 34.7769 172.672 34.3265 172.715 33.8792C172.799 33.3752 172.925 32.9552 173.093 32.7022C173.303 32.7442 173.597 32.7862 174.018 32.8292C174.367 32.8632 174.745 32.9272 175.152 32.9962L175.405 33.0392C175.909 33.1232 176.497 33.1652 177.086 33.2072L177.203 33.2152C177.747 33.2552 178.257 33.2912 178.767 33.2912C179.818 33.2912 180.532 33.1652 180.953 32.9552C181.331 32.7452 181.541 32.3662 181.541 31.9042C181.541 31.6102 181.457 31.3582 181.289 31.1892C181.081 30.9821 180.839 30.8117 180.574 30.6852C180.192 30.5185 179.799 30.3782 179.398 30.2652C178.834 30.107 178.274 29.939 177.716 29.7612C176.993 29.5354 176.278 29.2829 175.573 29.0042C175.014 28.7892 174.49 28.4919 174.018 28.1222C173.605 27.7973 173.273 27.3797 173.051 26.9032C172.841 26.4412 172.715 25.8532 172.715 25.2232C172.715 23.7932 173.177 22.7432 174.144 22.1132C175.194 21.3982 176.665 21.1032 178.641 21.1032V21.1042ZM191.881 31.6102C191.881 32.1982 192.007 32.5762 192.217 32.7862C192.469 32.9962 192.848 33.0812 193.352 33.0812C193.688 33.0812 194.109 33.0812 194.529 33.0392C194.949 33.0392 195.286 32.9972 195.496 32.9552C195.538 33.1652 195.58 33.3752 195.622 33.6272C195.622 33.8792 195.622 34.1312 195.58 34.3832C195.538 34.6352 195.496 34.8882 195.37 35.1402C195.285 35.3502 195.159 35.5602 194.991 35.6862C194.781 35.7702 194.487 35.8122 194.109 35.8542C193.73 35.8962 193.31 35.8962 192.806 35.8962C192.271 35.8978 191.736 35.8556 191.208 35.7702C190.704 35.6862 190.242 35.4762 189.821 35.2242C189.413 34.8943 189.083 34.478 188.855 34.0052C188.602 33.4592 188.518 32.7452 188.518 31.8622V23.8772H186.501C186.375 23.4992 186.333 23.1212 186.333 22.6592C186.333 22.1962 186.375 21.8192 186.501 21.4402H188.518V17.8682C188.729 17.7422 188.981 17.6582 189.317 17.6162C189.611 17.5322 189.905 17.4902 190.242 17.4902C190.536 17.4482 190.83 17.4482 191.124 17.4482C191.419 17.4482 191.629 17.4902 191.839 17.5322V21.4402H195.748C195.886 21.8319 195.957 22.244 195.958 22.6592C195.957 23.0741 195.886 23.4859 195.748 23.8772H191.881V31.6102V31.6102Z" fill="white"/>
</g>
<defs>
<filter id="filter0_d_6_63" x="0" y="0" width="199.958" height="57.042" filterUnits="userSpaceOnUse" color-interpolation-filters="sRGB">
<feFlood flood-opacity="0" result="BackgroundImageFix"/>
<feColorMatrix in="SourceAlpha" type="matrix" values="0 0 0 0 0 0 0 0 0 0 0 0 0 0 0 0 0 0 127 0" result="hardAlpha"/>
<feOffset/>
<feGaussianBlur stdDeviation="2"/>
<feColorMatrix type="matrix" values="0 0 0 0 0.252306 0 0 0 0 0.258333 0 0 0 0 0.255802 0 0 0 0.08 0"/>
<feBlend mode="normal" in2="BackgroundImageFix" result="effect1_dropShadow_6_63"/>
<feBlend mode="normal" in="SourceGraphic" in2="effect1_dropShadow_6_63" result="shape"/>
</filter>
</defs>
</svg>
