<svg width="147" height="39" viewBox="0 0 147 39" fill="none" xmlns="http://www.w3.org/2000/svg">
<g clip-path="url(#clip0_6_10)">
<path d="M0 19C0 8.506 8.4 0 18.761 0C29.123 0 37.522 8.506 37.554 19C37.551 20.2142 37.4325 21.4253 37.2 22.617C37.04 23.432 36.846 24.214 36.59 24.964L31.505 20.01C31.347 19.8611 31.143 19.7703 30.9267 19.7525C30.7103 19.7347 30.4942 19.791 30.314 19.912H30.282C30.0945 20.0272 29.9533 20.2043 29.8828 20.4127C29.8123 20.6212 29.817 20.8477 29.896 21.053V21.086C30.153 21.77 29.316 22.324 28.801 21.836L21.336 14.144C21.014 13.884 20.596 13.72 20.177 13.818C19.534 13.981 19.115 14.568 19.18 15.187L19.276 18.185C19.34 19.163 18.536 19.978 17.57 19.913L11.456 18.413C11.2648 18.3672 11.0643 18.3802 10.8805 18.4501C10.6968 18.52 10.5384 18.6437 10.426 18.805C10.136 19.261 10.266 19.847 10.716 20.108L17.12 24.117C17.538 24.312 17.28 24.997 16.83 24.834L6.951 21.314C6.56514 21.1873 6.15359 21.1597 5.75427 21.2338C5.35495 21.3079 4.9807 21.4813 4.666 21.738L2.703 23.465C4.634 30.667 11.103 35.947 18.793 35.947C25.873 35.947 31.923 31.449 34.337 25.127L35.881 26.757C32.953 33.405 26.388 38.033 18.761 38.033C10.459 38.033 3.443 32.557 0.965 24.964C0.675725 24.0463 0.450188 23.1098 0.29 22.161L2.124 20.5L8.592 14.732C8.8487 14.5091 9.17407 14.3809 9.51383 14.3689C9.85359 14.3569 10.1872 14.4618 10.459 14.666L12.615 16.296C12.8871 16.5182 13.2321 16.6312 13.5829 16.6131C13.9337 16.595 14.2652 16.447 14.513 16.198L19.887 9.974C20.499 9.257 21.625 9.289 22.172 10.071L27.546 17.6C27.6681 17.7415 27.8177 17.8567 27.9856 17.9387C28.1536 18.0206 28.3365 18.0675 28.5232 18.0766C28.7099 18.0857 28.8964 18.0567 29.0716 17.9914C29.2467 17.9262 29.4068 17.826 29.542 17.697L29.96 17.371C30.54 16.883 31.376 16.948 31.923 17.469L35.334 20.859C35.398 20.239 35.431 19.62 35.431 19.001C35.431 9.648 27.965 2.087 18.729 2.087C9.879 2.087 2.671 9.061 2.092 17.86L0.032 19.62C0.032 19.522 0.024 19.417 0.016 19.31C0.00685497 19.2069 0.001518 19.1035 0 19H0ZM64.747 10.885C64.747 10.429 64.683 10.005 64.587 9.679C64.532 9.669 64.475 9.654 64.413 9.639C64.2691 9.59968 64.1228 9.56962 63.975 9.549C63.7408 9.5112 63.5042 9.48948 63.267 9.484C63.009 9.484 62.784 9.516 62.559 9.549C62.301 9.581 62.109 9.614 61.947 9.679C61.8403 10.0721 61.7865 10.4777 61.787 10.885C61.787 11.341 61.851 11.765 61.947 12.091C62.14 12.156 62.333 12.221 62.559 12.254C62.784 12.286 63.041 12.319 63.267 12.319C63.524 12.319 63.749 12.286 63.975 12.254C64.232 12.221 64.425 12.156 64.586 12.091C64.683 11.732 64.747 11.341 64.747 10.885V10.885ZM64.554 24.475V14.177C64.2 14.079 63.781 14.047 63.299 14.047C62.8775 14.0512 62.4574 14.0947 62.044 14.177V24.475C62.398 24.573 62.816 24.605 63.299 24.605C63.782 24.605 64.199 24.54 64.554 24.475ZM55.029 24.475C54.803 24.54 54.514 24.573 54.224 24.605C53.934 24.638 53.644 24.638 53.323 24.638C53.001 24.638 52.712 24.638 52.422 24.605C52.151 24.5802 51.882 24.5367 51.617 24.475L46.887 9.777C47.08 9.744 47.273 9.712 47.531 9.679C47.788 9.647 48.045 9.647 48.303 9.647C48.56 9.647 48.818 9.647 49.075 9.679C49.247 9.701 49.39 9.723 49.533 9.744L49.751 9.777L53.323 21.998H53.452L57.088 9.777C57.281 9.744 57.474 9.712 57.732 9.679C57.989 9.647 58.246 9.647 58.504 9.647C58.761 9.647 59.019 9.647 59.276 9.679C59.534 9.712 59.726 9.744 59.92 9.809L55.028 24.475H55.029ZM71.087 21.412C71.087 21.868 71.183 22.162 71.344 22.324C71.537 22.487 71.827 22.552 72.213 22.552C72.47 22.552 72.793 22.552 73.113 22.52C73.436 22.52 73.693 22.487 73.854 22.454C73.886 22.617 73.918 22.78 73.951 22.976C73.951 23.172 73.951 23.367 73.918 23.563C73.886 23.758 73.854 23.953 73.758 24.149C73.693 24.312 73.597 24.475 73.468 24.573C73.307 24.638 73.082 24.671 72.792 24.703C72.502 24.736 72.181 24.736 71.794 24.736C71.376 24.736 70.958 24.703 70.572 24.638C70.186 24.573 69.832 24.41 69.51 24.214C69.1967 23.9574 68.944 23.6347 68.77 23.269C68.576 22.846 68.512 22.292 68.512 21.607V15.415H66.967C66.871 15.122 66.839 14.829 66.839 14.47C66.839 14.111 66.871 13.818 66.967 13.525H68.512V10.755C68.673 10.657 68.866 10.592 69.124 10.559C69.354 10.4923 69.5925 10.4593 69.832 10.461C70.057 10.429 70.282 10.429 70.507 10.429C70.6912 10.4305 70.8746 10.4523 71.054 10.494V13.524H74.047C74.144 13.818 74.208 14.112 74.208 14.47C74.208 14.828 74.144 15.122 74.048 15.415H71.054V21.412H71.086H71.087Z" fill="#3C3F54"/>
<path fill-rule="evenodd" clip-rule="evenodd" d="M86.4999 22.3897C86.5969 22.7147 86.6299 23.1057 86.5969 23.5297C86.5329 23.9537 86.4039 24.3117 86.1789 24.5727C85.8889 24.6707 85.5989 24.7357 85.2459 24.7357C84.9239 24.7357 84.5699 24.6707 84.2799 24.5727C83.9649 24.4817 83.6775 24.3136 83.4439 24.0837C83.1861 23.8579 82.9966 23.5645 82.8969 23.2367C82.5749 23.6597 82.1239 24.0187 81.6089 24.3117C81.0619 24.6047 80.3539 24.7677 79.5179 24.7677C78.6479 24.7677 78.0049 24.6377 77.5219 24.4097C77.0848 24.2044 76.708 23.89 76.4279 23.4967C76.1709 23.1387 76.0419 22.7467 75.9779 22.3237C75.9163 21.9467 75.8839 21.5656 75.8809 21.1837C75.8809 20.6287 75.9129 20.1737 76.0109 19.7817C76.0739 19.3917 76.2349 19.0647 76.4279 18.8047C76.6219 18.5437 76.9109 18.3477 77.2979 18.1847C77.6829 18.0217 78.1339 17.9247 78.7449 17.8587C79.0029 17.8267 79.3249 17.7937 79.6789 17.7937H80.7729C81.1589 17.7937 81.5129 17.8267 81.8669 17.8917C82.2209 17.9237 82.5429 17.9897 82.8319 18.0867V17.1417C82.8319 16.8167 82.7999 16.5227 82.7359 16.3277C82.6709 16.0987 82.5749 15.9367 82.4139 15.8377C82.2539 15.7077 82.0919 15.6427 81.8669 15.5777C81.5993 15.5392 81.3309 15.5066 81.0619 15.4797C80.3115 15.4471 79.5602 15.4471 78.8099 15.4797C78.1019 15.5127 77.4899 15.5457 77.0079 15.6097C76.8149 15.3827 76.7179 15.0567 76.6539 14.6657C76.5889 14.2737 76.5569 13.9157 76.5889 13.5897C76.9294 13.5263 77.2733 13.4829 77.6189 13.4597C78.0049 13.4267 78.3909 13.3937 78.8089 13.3617C79.0029 13.3457 79.2039 13.3377 79.4049 13.3287C79.6059 13.3207 79.8069 13.3127 79.9999 13.2967C80.1979 13.2967 80.3859 13.2877 80.5709 13.2797C80.7479 13.2717 80.9209 13.2637 81.0949 13.2637C81.7379 13.2637 82.2849 13.2967 82.8319 13.3937C83.3789 13.4917 83.7979 13.6547 84.1839 13.9157C84.5699 14.1757 84.8599 14.5677 85.0529 15.0557C85.2779 15.5457 85.3749 16.1967 85.3749 17.0117V22.2917C85.4709 22.3567 85.5679 22.4217 85.6959 22.4217C85.8838 22.4609 86.0773 22.4657 86.2669 22.4357C86.3121 22.4275 86.3579 22.4228 86.4039 22.4217C86.4359 22.3887 86.5009 22.3887 86.5009 22.3887L86.4999 22.3897ZM80.1299 22.7477C80.7729 22.7147 81.3199 22.6177 81.7379 22.4217C82.1559 22.2257 82.5099 21.9977 82.7999 21.7047V19.3587C82.2199 19.3587 81.6099 19.3587 80.9659 19.3907C80.3219 19.4237 79.8069 19.4887 79.3559 19.5537C79.1959 19.5867 79.0349 19.6187 78.9389 19.6517C78.8825 19.67 78.8305 19.6996 78.7862 19.7389C78.7418 19.7781 78.7059 19.826 78.6809 19.8797C78.6169 19.9777 78.5519 20.1397 78.5209 20.3357C78.4879 20.5317 78.4879 20.8247 78.4879 21.1507C78.4879 21.7377 78.6169 22.1607 78.8419 22.4217C79.0349 22.6497 79.4859 22.7797 80.1289 22.7477H80.1299Z" fill="#3C3F54"/>
<path d="M93.1945 11.7C92.6155 11.7 92.1975 11.798 92.0045 12.026C91.7785 12.254 91.6825 12.71 91.6825 13.362V14.502H94.2885C94.3855 14.796 94.4495 15.089 94.4495 15.448C94.4495 15.806 94.3855 16.099 94.2895 16.393H91.6825V24.508C91.2718 24.6103 90.8507 24.665 90.4275 24.671C89.9775 24.671 89.5585 24.605 89.1725 24.508V16.393H87.7245C87.6188 16.0891 87.5644 15.7698 87.5635 15.448C87.5635 15.089 87.6275 14.796 87.7235 14.503H89.1725V13.232C89.1725 12.71 89.2365 12.222 89.3655 11.765C89.4945 11.309 89.7195 10.918 90.0095 10.592C90.2995 10.266 90.6525 10.005 91.1035 9.84203C91.5535 9.64703 92.0685 9.58203 92.6805 9.58203C92.8735 9.58203 93.0665 9.58203 93.3235 9.61403C93.5555 9.61403 93.7605 9.64003 93.9865 9.66903L94.0635 9.67903C94.3215 9.71203 94.5465 9.74403 94.7715 9.80903C94.9135 9.83003 95.0415 9.86303 95.1575 9.89303C95.2275 9.91103 95.2915 9.92803 95.3515 9.94003C95.4155 10.266 95.4155 10.592 95.3835 10.95C95.3248 11.2796 95.2162 11.5982 95.0615 11.895L94.1925 11.798C93.8065 11.7 93.5165 11.7 93.1945 11.7V11.7Z" fill="#3C3F54"/>
<path fill-rule="evenodd" clip-rule="evenodd" d="M100.982 13.2637C101.98 13.2637 102.816 13.3937 103.492 13.6227C104.168 13.8827 104.715 14.2417 105.133 14.6977C105.561 15.2053 105.859 15.8093 106.002 16.4577C106.163 17.1747 106.26 17.9577 106.26 18.8377C106.26 19.8147 106.163 20.6617 106.002 21.4117C105.852 22.0772 105.556 22.7008 105.133 23.2367C104.715 23.7257 104.168 24.0837 103.492 24.3447C102.816 24.6047 101.98 24.7027 100.982 24.7027C99.9843 24.7027 99.1163 24.5727 98.4403 24.3447C97.7643 24.0837 97.2173 23.7247 96.7993 23.2367C96.3803 22.7467 96.0913 22.1287 95.9293 21.4117C95.7513 20.5651 95.6651 19.7017 95.6723 18.8367C95.6723 17.9567 95.7693 17.1417 95.9303 16.4577C96.0903 15.7407 96.3803 15.1537 96.7993 14.6977C97.2173 14.2087 97.7643 13.8507 98.4393 13.6227C99.1483 13.3617 99.9853 13.2637 100.982 13.2637V13.2637ZM100.982 15.3827C100.435 15.3827 99.9843 15.4477 99.6303 15.5777C99.2773 15.7077 99.0193 15.9037 98.7943 16.1977C98.5729 16.5304 98.4297 16.9088 98.3753 17.3047C98.3073 17.8235 98.2753 18.3464 98.2793 18.8697C98.2793 19.5207 98.3113 20.1077 98.3753 20.5967C98.4403 21.0857 98.5693 21.4767 98.7943 21.7697C98.9873 22.0637 99.2773 22.2917 99.6313 22.4537C99.9843 22.5837 100.435 22.6827 100.982 22.6827C101.529 22.6827 102.012 22.6167 102.334 22.4537C102.663 22.3086 102.942 22.0709 103.138 21.7697C103.331 21.4767 103.46 21.0857 103.524 20.5967C103.589 20.1077 103.621 19.5537 103.621 18.9017C103.621 18.2827 103.589 17.7617 103.524 17.3377C103.46 16.9137 103.331 16.5227 103.138 16.2617C102.947 15.9711 102.664 15.7531 102.334 15.6427C102.012 15.4477 101.561 15.3827 100.982 15.3827V15.3827Z" fill="#3C3F54"/>
<path d="M115.946 13.3297C115.987 13.5013 116.019 13.6748 116.042 13.8497C116.075 14.0787 116.075 14.3067 116.042 14.5677C116.01 14.8277 115.978 15.0567 115.946 15.2847C115.898 15.4639 115.834 15.6384 115.753 15.8057C115.528 15.7737 115.238 15.7737 114.916 15.7737C114.594 15.7737 114.24 15.7737 113.854 15.8057C113.468 15.8387 113.082 15.8707 112.631 15.9037C112.492 15.9257 112.352 15.9437 112.213 15.9617C111.934 15.9977 111.655 16.0337 111.376 16.0987V24.5077C111.215 24.5397 111.022 24.5727 110.797 24.6057C110.572 24.6377 110.347 24.6377 110.121 24.6377C109.896 24.6377 109.671 24.6377 109.446 24.6047C109.252 24.5777 109.059 24.5454 108.866 24.5077V13.6227C108.963 13.5567 109.092 13.4927 109.285 13.4267C109.472 13.3625 109.667 13.3294 109.864 13.3287C110.057 13.2967 110.25 13.2967 110.443 13.2967C110.636 13.2967 110.797 13.3287 110.894 13.3617L111.344 14.6977C111.722 14.3771 112.145 14.1136 112.599 13.9157C113.012 13.7208 113.443 13.568 113.886 13.4597C114.278 13.3652 114.676 13.2997 115.077 13.2637C115.367 13.2637 115.656 13.2637 115.946 13.3287V13.3297Z" fill="#3C3F54"/>
<path fill-rule="evenodd" clip-rule="evenodd" d="M122.189 13.2637C123.251 13.2637 124.088 13.3937 124.763 13.6547C125.383 13.8836 125.928 14.2779 126.34 14.7947C126.726 15.2847 126.952 15.8707 127.048 16.5877C127.145 17.3047 127.145 18.0877 127.016 18.9677C126.984 19.1947 126.919 19.3907 126.823 19.5207C126.726 19.6507 126.501 19.7497 126.179 19.8147C125.954 19.8467 125.568 19.8797 125.085 19.9127C124.602 19.9447 124.055 19.9447 123.444 19.9447C122.833 19.9447 122.253 19.9447 121.642 19.9127C121.082 19.8808 120.523 19.8264 119.968 19.7497C119.968 20.3037 120.033 20.7927 120.129 21.1497C120.226 21.5417 120.355 21.8347 120.58 22.0297C120.773 22.2587 121.063 22.4217 121.384 22.4867C121.706 22.5847 122.157 22.6167 122.672 22.6167C122.993 22.6167 123.38 22.6167 123.766 22.5847C124.152 22.5517 124.538 22.5197 124.892 22.4867C125.246 22.4547 125.568 22.4217 125.825 22.3887C126.083 22.3567 126.276 22.3237 126.372 22.2917C126.501 22.4867 126.63 22.7797 126.726 23.1717C126.823 23.5617 126.823 23.9217 126.759 24.2797C126.598 24.3447 126.34 24.4097 126.018 24.4747C125.824 24.5147 125.617 24.5417 125.391 24.5717C125.244 24.5917 125.089 24.6117 124.924 24.6377C124.538 24.6707 124.12 24.7027 123.702 24.7357H123.701C123.283 24.7677 122.897 24.7677 122.543 24.7677C121.578 24.7677 120.741 24.6707 120.097 24.4747C119.467 24.2968 118.899 23.9471 118.456 23.4647C118.038 23.0087 117.748 22.3887 117.555 21.6397C117.362 20.8897 117.298 19.9777 117.298 18.8697C117.298 17.9567 117.362 17.1747 117.523 16.4577C117.652 15.7737 117.909 15.1867 118.295 14.6977C118.649 14.2417 119.164 13.8827 119.775 13.6227C120.387 13.3617 121.191 13.2637 122.189 13.2637V13.2637ZM124.538 18.1847C124.57 17.5337 124.57 17.0447 124.474 16.6537C124.377 16.2617 124.248 16.0017 124.055 15.8057C123.851 15.6074 123.594 15.472 123.315 15.4157C122.987 15.3472 122.653 15.3141 122.318 15.3167C121.835 15.3167 121.417 15.3497 121.127 15.4467C120.805 15.5127 120.58 15.6757 120.387 15.8707C120.226 16.0987 120.097 16.3927 120.033 16.7507C119.968 17.1417 119.936 17.5987 119.904 18.2177L124.538 18.1847V18.1847Z" fill="#3C3F54"/>
<path d="M133.71 13.2637C134.16 13.2637 134.643 13.2967 135.093 13.3287C135.576 13.3617 135.994 13.3947 136.38 13.4587C136.536 13.4857 136.687 13.5067 136.83 13.5267C137.041 13.5567 137.237 13.5837 137.41 13.6227C137.7 13.6877 137.893 13.7527 137.989 13.7857C138.022 13.9157 138.022 14.0787 138.022 14.2737C138.022 14.4447 137.997 14.5907 137.97 14.7557L137.969 14.7577L137.957 14.8277C137.933 15.0058 137.89 15.1809 137.829 15.3497C137.764 15.5127 137.7 15.6427 137.636 15.7737C137.603 15.7737 137.475 15.7407 137.217 15.6757C136.96 15.6107 136.638 15.5777 136.284 15.5457C135.898 15.5127 135.512 15.4797 135.029 15.4157C134.59 15.3776 134.15 15.3556 133.71 15.3497C132.969 15.3497 132.454 15.4147 132.165 15.5457C131.875 15.6757 131.746 15.9357 131.746 16.3277C131.746 16.5877 131.811 16.7837 131.94 16.9467C132.068 17.1097 132.261 17.2397 132.519 17.3707C132.575 17.3907 132.633 17.4147 132.693 17.4387C132.907 17.5237 133.15 17.6197 133.452 17.6957C133.806 17.7937 134.257 17.9237 134.739 18.0867L134.81 18.1097C135.391 18.2957 135.884 18.4537 136.348 18.6417C136.799 18.8047 137.185 19.0317 137.507 19.2927C137.829 19.5537 138.054 19.8467 138.215 20.2057C138.376 20.5637 138.44 21.0207 138.44 21.5747C138.44 22.6827 138.054 23.4967 137.314 23.9857C136.574 24.5077 135.383 24.7677 133.742 24.7677C133.259 24.7677 132.776 24.7357 132.294 24.7027C131.852 24.6803 131.411 24.637 130.974 24.5727C130.809 24.5467 130.654 24.5267 130.508 24.5067C130.297 24.4813 130.088 24.449 129.88 24.4097C129.638 24.3657 129.401 24.3001 129.172 24.2137C129.139 23.8671 129.139 23.5183 129.172 23.1717C129.236 22.7797 129.333 22.4537 129.462 22.2587C129.623 22.2917 129.848 22.3237 130.17 22.3567C130.437 22.3837 130.727 22.4327 131.038 22.4867L131.232 22.5197C131.618 22.5847 132.068 22.6177 132.519 22.6497L132.609 22.6567C133.025 22.6867 133.416 22.7147 133.806 22.7147C134.611 22.7147 135.158 22.6167 135.479 22.4547C135.769 22.2917 135.93 21.9977 135.93 21.6397C135.93 21.4117 135.866 21.2157 135.737 21.0857C135.577 20.9256 135.393 20.7934 135.19 20.6947C134.897 20.5654 134.596 20.4564 134.289 20.3687C133.857 20.246 133.428 20.1157 133.002 19.9777C132.447 19.8026 131.899 19.6068 131.36 19.3907C130.931 19.2234 130.53 18.9929 130.17 18.7067C129.852 18.454 129.599 18.1303 129.43 17.7617C129.254 17.3496 129.166 16.9055 129.172 16.4577C129.172 15.3497 129.526 14.5347 130.266 14.0457C131.071 13.4917 132.197 13.2637 133.71 13.2637V13.2637ZM143.846 21.4117C143.846 21.8677 143.943 22.1617 144.104 22.3237C144.297 22.4867 144.587 22.5517 144.973 22.5517C145.23 22.5517 145.552 22.5517 145.874 22.5197C146.196 22.5197 146.453 22.4867 146.614 22.4537C146.646 22.6167 146.678 22.7797 146.71 22.9757C146.71 23.1717 146.71 23.3667 146.678 23.5627C146.646 23.7577 146.614 23.9527 146.517 24.1487C146.459 24.3128 146.359 24.459 146.228 24.5727C146.067 24.6377 145.842 24.6707 145.552 24.7027C145.262 24.7357 144.941 24.7357 144.554 24.7357C144.144 24.7366 143.735 24.7039 143.331 24.6377C142.945 24.5727 142.591 24.4097 142.27 24.2137C141.956 23.9572 141.703 23.6345 141.529 23.2687C141.336 22.8457 141.272 22.2917 141.272 21.6067V15.4147H139.727C139.631 15.1217 139.599 14.8287 139.599 14.4697C139.599 14.1107 139.631 13.8177 139.727 13.5247H141.272V10.7547C141.433 10.6567 141.626 10.5917 141.883 10.5587C142.109 10.4937 142.334 10.4607 142.591 10.4607C142.817 10.4287 143.042 10.4287 143.267 10.4287C143.451 10.4302 143.634 10.452 143.814 10.4937V13.5237H146.807C146.903 13.8177 146.968 14.1117 146.968 14.4697C146.968 14.8277 146.903 15.1217 146.807 15.4147H143.846V21.4117V21.4117Z" fill="#3C3F54"/>
</g>
<defs>
<clipPath id="clip0_6_10">
<rect width="147" height="39" fill="white"/>
</clipPath>
</defs>
</svg>
